<svg id="Layer_1" data-name="Layer 1" xmlns="http://www.w3.org/2000/svg" viewBox="0 0 373.88 442.48"><defs><style>.cls-1{fill:#fff;}</style></defs><path class="cls-1" d="M136.05,442.48c-4.21-2.32-8.81-4.15-12.55-7.08a23.05,23.05,0,0,1-9-18.37c-.28-18.87-.38-37.73-.55-56.6,0-1.71,0-3.41,0-5.76-6.24,0-12.08-.07-17.92,0-12.51.17-22-5-27.7-16.21a27.87,27.87,0,0,1-2.91-12q-.3-87.93-.16-175.87a16.05,16.05,0,0,1,.24-1.9h243c.08,1.49.21,2.88.21,4.27,0,56.75-.19,113.5.13,170.25.09,17.05-10.72,28.46-22.57,30.58-6.57,1.18-13.45.67-20.19.88-1.84.06-3.68,0-6.08,0v5.08c0,15.84-.51,31.71.14,47.53.71,17.24-4.93,29.74-22.27,35.16H227.48c-17.36-5.3-23.12-17.72-22.44-35,.62-15.94.13-31.92.13-47.89V355H168.68v5q0,26.54,0,53.08c0,8.4-2,16.23-8.64,21.67-4,3.26-9.06,5.18-13.65,7.7Z"/><path class="cls-1" d="M264.57,0c2.5,2.41,2.09,4.87.52,7.7-6,10.8-11.79,21.69-17.78,32.75,38.07,21.61,60.55,53,62.44,98.07H63.93c1.73-45,24.23-76.29,62.6-98.05-2.46-4.57-4.94-9.2-7.44-13.82-3.48-6.46-6.9-12.94-10.5-19.33-1.54-2.74-1.6-5.09.72-7.32h3.45c1.44,2.29,3,4.53,4.3,6.9,5.52,10,11,20.1,16.55,30.31,35.73-14.84,71.25-14.73,106.68,0,2.37-4.33,4.47-8.25,6.65-12.13,4.7-8.36,9.45-16.69,14.18-25ZM130.88,94.26a10.49,10.49,0,0,0,10.33-10A10.65,10.65,0,0,0,131,73.73,10.34,10.34,0,0,0,121,84,10.19,10.19,0,0,0,130.88,94.26Zm111.92,0a10.21,10.21,0,0,0,10.14-10.07,10.4,10.4,0,0,0-9.81-10.45,10.63,10.63,0,0,0-10.46,10.34A10.48,10.48,0,0,0,242.8,94.26Z"/><path class="cls-1" d="M319.68,227.72c0-20-.39-40,.14-60,.35-13.55,12.3-24.05,26.09-24.27,14.2-.22,26,9.85,27.45,23.38a85.52,85.52,0,0,1,.47,8.62c0,35.57,0,71.14.05,106.71,0,11.9-4.23,21.36-15.06,27.05-16.93,8.89-38.26-2.71-39-21.85-.75-19.84-.17-39.74-.17-59.6Z"/><path class="cls-1" d="M54.21,227.87c0,19.87.4,39.75-.13,59.6-.36,13.89-12.2,24.4-26.2,24.59-14.29.19-26-10-27.39-24-.28-2.71-.44-5.45-.45-8.18,0-35.56,0-71.13,0-106.69,0-12.14,4.51-21.57,15.56-27.16,16.65-8.41,37.77,3.17,38.48,21.78C54.79,187.83,54.21,207.86,54.21,227.87Z"/></svg>