<?xml version="1.0" encoding="utf-8"?>
<!-- Generator: Adobe Illustrator 26.2.1, SVG Export Plug-In . SVG Version: 6.00 Build 0)  -->
<svg version="1.1" id="Layer_1" xmlns="http://www.w3.org/2000/svg" xmlns:xlink="http://www.w3.org/1999/xlink" x="0px" y="0px"
	 viewBox="0 0 360.6 205.6" style="enable-background:new 0 0 360.6 205.6;" xml:space="preserve">
<style type="text/css">
	.st0{opacity:0.4;fill:#FFFFFF;}
</style>
<path class="st0" d="M0,21.7c1.6-6.4,4.3-12,9.6-16.3c9.1-7.2,21.9-7.3,31-0.2c1.8,1.4,3.4,2.9,5,4.5
	c43.8,43.8,87.7,87.7,131.5,131.5c1.3,1.5,2.7,2.8,4.2,4c0.7-1.2,1.1-2.7,2.1-3.7C227.6,97.3,271.8,53,316.1,8.8
	C323.9,1,332.9-2,343.7,1.4c15.7,5,22.1,25.2,12.2,38.4c-1.1,1.5-2.3,2.9-3.7,4.3c-51,51-101.9,102-152.9,152.9
	c-9.3,9.3-21.1,11.1-31.8,4.9c-2.6-1.6-4.9-3.6-7-5.8C111,146.7,61.5,97.2,12,47.7c-5.5-5.5-10.4-11.1-12-19V21.7z"/>
</svg>
