<?xml version="1.0" encoding="utf-8"?>
<!-- Generator: Adobe Illustrator 26.2.1, SVG Export Plug-In . SVG Version: 6.00 Build 0)  -->
<svg version="1.1" id="Layer_1" xmlns="http://www.w3.org/2000/svg" xmlns:xlink="http://www.w3.org/1999/xlink" x="0px" y="0px"
	 viewBox="0 0 333.3 404" style="enable-background:new 0 0 333.3 404;" xml:space="preserve">
<style type="text/css">
	.st0{fill-rule:evenodd;clip-rule:evenodd;fill:url(#SVGID_1_);}
	.st1{fill-rule:evenodd;clip-rule:evenodd;fill:#202D14;stroke:#373435;stroke-width:0.22;stroke-miterlimit:22.93;}
	.st2{fill-rule:evenodd;clip-rule:evenodd;fill:#EFF1BF;}
</style>
<g id="_Layer_3">
	
		<linearGradient id="SVGID_1_" gradientUnits="userSpaceOnUse" x1="-87.5365" y1="367.5509" x2="430.6735" y2="31.021" gradientTransform="matrix(1 0 0 -1 0 405.2756)">
		<stop  offset="0" style="stop-color:#B6762A"/>
		<stop  offset="0.63" style="stop-color:#F1EF9A"/>
		<stop  offset="1" style="stop-color:#B6762A"/>
	</linearGradient>
	<path class="st0" d="M149.9,21.6L149.5,0h33.3l-0.1,21.6h22.4v43.4h43.8l23.4,27.5l-12.1,0.3l-11.5,17.1l8.4,0.1v15.4l15.5,0.1
		l0.1,20.6l15.4-0.1v28c8-0.2,13.6,2.5,16.5,11.4c15.1-1,24,17.5,28.6,36.5l-10.6-4.7l-36.3-0.2l-3.4,7l15.5-0.1l0.2,13.7h12
		l0.1,15.7h-12.3v10.3l-19,0.2v6.7l-15.5,0.2v77.9h-65.7l-0.1,31h-13.7V404h-36.4v-24.2h-13.8v-31.1l-65.8-0.1l0.2-77.9H53l0.2-6.9
		H33.9l-0.1-10.4l-12-0.1l0-15.5h12l0.1-13.8h16.8l-3.2-7.1l-34.1-0.2c-4.9,0.6-9.6,2.5-13.5,5.6c2.5-14.8,7.3-35.3,28.3-36.9
		c1.8-6.5,6-12.2,16.2-11.7l-0.2-27.8l15.8,0.1l0-20.7l15.4-0.1l0.1-13.8H84l-12-19H60l24.1-26h43.1V21.8L149.9,21.6z"/>
	<polygon class="st1" points="163.6,170.4 163.6,187.9 146.4,177.3 146.4,90.9 134.4,72.7 134.2,30.3 156.8,30.3 156.7,7.8 
		175.8,7.9 175.7,30.6 198.3,30.6 198.3,72.7 186.2,90.8 186.3,177.2 170.6,187.7 170.8,170.3 175.8,164.8 175.9,40.8 156.8,40.7 
		156.8,165.2 	"/>
	<polygon class="st1" points="80.7,82.2 85.9,75.3 129,75.3 139.4,94.3 139.5,184.1 161.9,198.1 162,258.6 136,258.6 136,201.5 
		108.3,175.2 108.2,108.2 92.7,82.3 	"/>
	<polygon class="st1" points="82.3,92.7 89.4,92.7 101.6,113.3 101.5,173.8 94.7,173.8 94.6,113.3 	"/>
	<polygon class="st1" points="80.7,156.6 87.5,156.6 87.6,173.8 80.6,173.9 	"/>
	<path class="st1" d="M14.9,208.3c1.3-5.8,5.1-11.9,10.3-13.6l11.8-0.1c-0.8-5.2,0.8-9,5.6-12.1l62.1-0.2l22.6,22.6v53.7l-20.7-0.1
		l-32.9-50L14.9,208.3z"/>
	<polygon class="st1" points="58,217.2 68.5,217.1 96.2,258.5 84.2,258.6 	"/>
	<polygon class="st1" points="53,241.4 53.1,248.1 68.6,248.2 63.2,241.3 	"/>
	<polygon class="st1" points="251.8,82.2 246.6,75.3 203.4,75.3 193,94.3 192.9,184.1 170.6,198.1 170.5,258.6 196.4,258.6 
		196.4,201.5 224.1,175.2 224.2,108.2 239.8,82.3 	"/>
	<path class="st1" d="M317.8,208.2c-1.3-5.8-5.1-11.9-10.3-13.6l-11.8-0.1c0.8-5.1-0.9-9-5.6-12l-62.1-0.2l-22.7,22.8l0.1,53.5
		l20.7-0.1l32.9-50L317.8,208.2z"/>
	<polygon class="st1" points="275,217.2 264.6,217.2 236.9,258.6 248.8,258.7 	"/>
	<polygon class="st1" points="279.5,241.4 279.6,248.2 264.2,248.3 269.3,241.4 	"/>
	<polygon class="st1" points="142.8,348.6 143,371.1 156.8,371.1 156.7,395.2 175.9,395.2 175.9,371.2 189.7,371.1 189.6,348.7 
		175.8,348.7 175.7,362.2 156.9,362.3 156.7,348.6 	"/>
	<polygon class="st1" points="75.4,267.3 75.6,339.8 257.1,339.9 257,267.3 	"/>
	<polygon class="st1" points="244.9,156.6 251.7,156.6 251.8,173.8 244.9,173.9 	"/>
	<polygon class="st1" points="250.2,92.7 243.1,92.7 230.9,113.3 231,173.8 237.9,173.8 238,113.3 	"/>
	<path class="st2" d="M223.7,314.2v0.9c-0.1,1.3,0.4,2.5,1.3,3.3c0.6,0.4,1.2,0.5,1.9,0.5c0.6,0,1.1-0.6,1.5-1.8l0.3-0.9
		c0.1-0.4,0.2-0.5,0.4-0.5s0.3,0.2,0.3,0.6c0,0.2,0,0.5-0.1,0.7l-0.1,0.8c-0.4,1.9-1,3.7-2,5.3c-0.8,1.2-1.6,1.9-2.5,1.9
		c-1.2,0.1-2.3-0.6-2.7-1.7c-0.5-1.4-0.8-2.9-0.8-4.4L223.7,314.2z"/>
	<path class="st2" d="M228.5,333.4c0.1,0.4,0,0.8-0.1,1.2c-0.2,0.5-0.4,1-0.7,1.5c-0.3,0.6-0.7,1.1-1.2,1.5
		c-0.2,0.2-0.5,0.4-0.8,0.5c-0.1,0-0.4-0.2-0.8-0.5s-0.8-0.6-1.1-0.9c-0.3-0.2-0.6-0.5-0.9-0.7c-0.2-0.1-0.3-0.3-0.4-0.6
		c0.2-0.5,0.4-0.9,0.5-1.1c0.4-0.9,0.7-1.5,0.9-1.9c0.4-0.6,0.7-1.2,1.1-1.8l0.4-0.5c0.1,0.1,0.2,0.2,0.4,0.3
		c0.2,0.1,0.3,0.2,0.5,0.3c0.6,0.4,1.2,0.9,1.7,1.5C228.2,332.6,228.4,333,228.5,333.4z"/>
	<path class="st2" d="M223.7,314.2c-0.3,1-0.6,2-1,3s-1,1.6-1.6,1.6c0-0.5,0.2-2.5,0.7-6s0.8-6.3,1.1-8.2c0-0.1,0.4-0.9,1-2.4
		c0.6-1.4,1.1-2.5,1.4-3.2l0.2-0.1c0,0.3,0,0.6-0.1,0.9l-0.2,1.5l-1,7.1c-0.2,1.4-0.3,2.7-0.4,3.7S223.7,313.8,223.7,314.2z"/>
	<path class="st2" d="M212.2,314.2v0.9c-0.1,1.3,0.4,2.5,1.3,3.3c0.6,0.4,1.2,0.5,1.9,0.5c0.6,0,1.1-0.6,1.5-1.8l0.3-0.9
		c0.1-0.4,0.2-0.5,0.4-0.5s0.3,0.2,0.3,0.6c0,0.2,0,0.5-0.1,0.7l-0.1,0.8c-0.4,1.9-1,3.7-2,5.3c-0.8,1.2-1.6,1.9-2.5,1.9
		c-1.2,0.1-2.3-0.6-2.7-1.7c-0.5-1.4-0.8-2.9-0.8-4.4L212.2,314.2z"/>
	<path class="st2" d="M216.7,288.5c0.1,0.4,0,0.8-0.1,1.2c-0.2,0.5-0.4,1-0.7,1.5c-0.3,0.6-0.7,1.1-1.2,1.5
		c-0.2,0.2-0.5,0.4-0.8,0.5c-0.3-0.1-0.6-0.3-0.8-0.5c-0.4-0.3-0.8-0.6-1.1-0.9c-0.3-0.2-0.6-0.5-0.9-0.7c-0.2-0.2-0.4-0.4-0.4-0.6
		c0.2-0.5,0.4-0.9,0.6-1.2c0.4-0.9,0.7-1.5,0.9-1.9c0.4-0.6,0.7-1.2,1.1-1.8l0.4-0.5c0.1,0.1,0.2,0.2,0.4,0.3
		c0.1,0.1,0.3,0.2,0.5,0.3c0.6,0.4,1.2,0.9,1.7,1.5C216.5,287.7,216.7,288.1,216.7,288.5z"/>
	<path class="st2" d="M212.2,314.2l-0.4,1.5c-0.1,0.5-0.3,1.1-0.6,1.6c-0.2,0.5-0.5,0.9-0.9,1.2c-0.3,0.3-0.6,0.3-0.7,0.2
		c0-1,0.1-2,0.2-3c0.1-1.1,0.2-1.9,0.3-2.2l0.1-0.6c0-0.1,0-0.2-0.1-0.2c0,0-0.1,0-0.2,0.1s-0.4,0.5-0.8,1c-0.8,1-1.3,1.7-1.7,2.2
		c-1.3,1.6-2.8,3-4.5,4.1c-1.8,1.3-3.7,2.3-5.8,3c-2.3,0.8-4.6,1.4-6.9,1.9c-2.7,0.5-5.4,0.8-8.1,0.8h-0.9c-1.4,0-2.8-0.1-4.2-0.3
		c-1.3-0.1-2.5-0.7-3.5-1.5c-0.7-0.9-1-2.1-0.9-3.3c0-1.3,0.1-2.6,0.3-3.8c0.2-1.3,0.4-2,0.8-2c0.1,0,0.2,0.4,0.3,1.1
		c0.1,0.7,0.4,1.5,0.9,2c1.1,1.2,3.7,1.7,7.9,1.7c2.3,0,4.1-0.1,5.5-0.2c6.6-0.5,11.9-2.1,16.1-4.6c1.8-1,3.4-2.4,4.6-4
		c0.9-1.3,1.6-2.8,2-4.3l0.8-3.3c0.4-1,0.8-2,1.3-3c0.5-1,0.9-1.7,1-2c0.2-0.3,0.4-0.6,0.6-0.8v0.9c-0.2,0.9-0.3,1.5-0.4,2l-1.3,6.1
		c-0.2,1.7-0.4,3.2-0.5,4.5S212.2,313.5,212.2,314.2z"/>
	<path class="st2" d="M217,293.4c1.8-1.7,3.7-3.3,5.7-4.8c2.6-2,5.1-4,7.7-6c1.9-1.5,3.6-3,5.3-4.5c1.2-1.1,2.8-2.5,4.8-4.4
		c3-2.8,4.5-4.2,4.5-4.3c0,0.2,0,0.4-0.1,0.5c-0.3,0.9-0.7,1.7-1.1,2.4c-0.5,0.8-1,1.7-1.6,2.4c-0.7,0.8-1.4,1.6-2.1,2.4
		c-0.8,0.8-1.3,1.4-1.8,1.8c-0.6,0.6-1.6,1.5-3.1,2.7c-1.1,0.9-2.7,2.3-4.9,4c-1.5,1.2-2.9,2.3-4.1,3.2c-1.6,1.2-3.2,2.4-4.8,3.5
		l-4.1,3.1c-0.6,0.5-1.2,0.9-1.7,1.3s-0.9,0.5-0.9,0.4c0.3-0.8,0.7-1.6,1.1-2.3C216,294.5,216.5,294,217,293.4z"/>
	<path class="st2" d="M163.5,315.7c0.8-0.8,1.3-1.4,1.5-1.6c0.6-0.7,1.1-1.6,1.5-2.5c0.5-1.2,0.8-2.5,1.1-3.9
		c0.3-1.2,0.4-2.5,0.4-3.7c0-1,0-2.1,0-3.3c0-1.1,0.1-2.3,0.2-3.5s0.1-1.8,0.1-2c0-0.2,0-0.3-0.1-0.5l-0.3,0.1l-2.2,5.1
		c-0.2,0.5-0.3,1-0.3,1.5c0,0.7-0.1,1.5-0.1,2.4l0.1,3.9c0.1,1.3-0.1,2.5-0.6,3.7c-0.2,0.4-0.4,0.8-0.7,1.1
		c-0.2,0.3-0.4,0.5-0.7,0.7L163.5,315.7z"/>
	<path class="st2" d="M170.7,290.6c1.8-1.7,3.7-3.3,5.7-4.8c2.6-2,5.1-4,7.7-6c1.9-1.5,3.6-3,5.3-4.5c1.2-1.1,2.8-2.5,4.8-4.4
		c3-2.8,4.5-4.2,4.5-4.3c0,0.2,0,0.4-0.1,0.5c-0.3,0.9-0.7,1.7-1.1,2.4c-0.5,0.8-1,1.7-1.6,2.4c-0.7,0.8-1.4,1.6-2.1,2.4
		c-0.8,0.8-1.3,1.4-1.8,1.8c-0.6,0.6-1.6,1.5-3.1,2.7c-1.1,0.9-2.7,2.3-4.9,4c-1.5,1.2-2.9,2.3-4.1,3.2c-1.6,1.2-3.2,2.4-4.8,3.5
		l-4.2,3.2c-0.6,0.5-1.2,0.9-1.7,1.3s-0.9,0.5-0.9,0.4c0.3-0.8,0.7-1.6,1.1-2.3C169.7,291.8,170.2,291.2,170.7,290.6z"/>
	<path class="st2" d="M163.5,315.7l-0.4,0.3c-0.7,0.4-1.1,0.6-1.4,0.7c-0.2,0.1-0.5,0.2-0.7,0.4c-0.3,0.2-0.6,0.5-0.8,0.7
		c-0.2,0.1-0.5,0.2-0.7,0.2c-0.3,0-0.6,0.1-0.8,0.3c-0.4,0.3-0.7,0.5-1.1,0.8c-0.3,0.3-0.7,0.6-1.2,0.8c-0.2,0-0.5,0-0.7,0
		c-0.3,0-0.6,0-0.9-0.1c-0.7,0-1.6,0.9-2.7,2.5s-2.4,2.5-4,2.5c-1.8,0-3.1-1-3.8-3.1c-0.2-0.5-0.3-1-0.3-1.5
		c-0.1-0.5-0.1-1.1-0.1-1.6l2.5-4.5c-0.1,1,0.2,2,0.7,3c0.8,1.2,2.2,1.9,3.6,1.8c0.9,0,1.7-0.2,2.4-0.7l2.6-1.9
		c0.5,0.1,1.1,0.1,1.6,0.1c0.6,0,1.1-0.3,1.4-0.7c0.2-0.3,0.5-0.5,0.8-0.8c0.2,0.2,0.5,0.3,0.7,0.1c0.5-0.2,0.9-0.5,1.3-0.9
		c0.2-0.3,0.4-0.6,0.6-0.9c0.3,0.1,0.6,0.1,0.9,0.1l0.4-0.2c0.1,0.2,0.2,0.4,0.2,0.6c0.1,0.2,0.1,0.4,0.1,0.7c0,0.2,0,0.4-0.1,0.5
		L163.5,315.7z"/>
	<path class="st2" d="M154.6,289.3c0.1,0.4,0,0.8-0.1,1.2c-0.2,0.5-0.4,1-0.7,1.5c-0.3,0.6-0.7,1.1-1.2,1.5
		c-0.2,0.2-0.5,0.4-0.8,0.5c-0.3-0.1-0.6-0.3-0.8-0.5c-0.4-0.4-0.8-0.6-1.1-0.9c-0.3-0.2-0.6-0.5-0.9-0.7c-0.2-0.1-0.3-0.3-0.4-0.6
		c0.2-0.5,0.4-0.9,0.5-1.1c0.4-0.9,0.7-1.5,0.9-1.9c0.4-0.6,0.7-1.2,1.1-1.8l0.4-0.5c0.1,0.1,0.2,0.2,0.4,0.3l0.5,0.3
		c0.6,0.4,1.2,0.9,1.7,1.5C154.3,288.5,154.5,288.9,154.6,289.3L154.6,289.3z M160.8,289L160.8,289c0.1,0.4,0,0.8-0.1,1.2
		c-0.2,0.5-0.4,1-0.7,1.5c-0.3,0.6-0.7,1.1-1.2,1.5c-0.2,0.2-0.5,0.4-0.8,0.5c-0.1,0-0.4-0.2-0.8-0.5s-0.8-0.6-1.1-0.9
		c-0.3-0.2-0.6-0.5-0.9-0.7c-0.2-0.2-0.4-0.4-0.4-0.6c0.2-0.5,0.4-0.9,0.5-1.2c0.4-0.9,0.7-1.5,0.9-1.9c0.4-0.6,0.7-1.2,1.1-1.8
		l0.4-0.5c0.1,0.1,0.2,0.2,0.4,0.3c0.1,0.1,0.3,0.2,0.5,0.3c0.6,0.4,1.2,1,1.7,1.5C160.5,288.1,160.7,288.5,160.8,289L160.8,289z
		 M157.7,281.8L157.7,281.8c-0.1-0.4-0.3-0.9-0.5-1.2c-0.5-0.6-1.1-1.1-1.7-1.5l-0.5-0.3c-0.1-0.1-0.2-0.2-0.4-0.3l-0.4,0.5
		c-0.4,0.6-0.7,1.2-1.1,1.8c-0.2,0.4-0.5,1-0.9,1.9c-0.1,0.3-0.3,0.7-0.6,1.2c0,0.2,0.2,0.4,0.4,0.6c0.2,0.2,0.5,0.5,0.9,0.8
		l1.1,0.9c0.2,0.2,0.5,0.4,0.8,0.5c0.3-0.1,0.6-0.2,0.8-0.5c0.5-0.4,0.9-1,1.2-1.5c0.3-0.5,0.5-1,0.7-1.5
		C157.7,282.6,157.7,282.2,157.7,281.8z"/>
	<path class="st2" d="M146.6,314.2c-0.3,1-0.6,2-1,3s-1,1.6-1.6,1.6c0-0.5,0.2-2.5,0.7-6s0.8-6.3,1.1-8.2c0-0.1,0.4-0.9,1-2.4
		c0.6-1.4,1.1-2.5,1.4-3.2l0.2-0.1c0,0.3,0,0.6-0.1,0.9l-0.2,1.5l-1,7.1c-0.2,1.4-0.3,2.7-0.4,3.7S146.6,313.8,146.6,314.2z"/>
	<path class="st2" d="M140.8,317.4l-0.9,2.1c-0.4,0.8-0.8,1.5-1.3,2.2c-0.3,0.5-0.8,1-1.2,1.3c-0.6,0.3-1.2,0.6-1.8,0.8
		c-0.4,0.2-0.9,0.3-1.3,0.5c-1,0.3-1.6,0.5-1.9,0.6c-0.6,0.2-1.3,0.3-1.9,0.4l-0.2-0.1c0-0.3,0.7-0.9,2.2-1.7l2.3-1.6
		c0.4-0.3,0.8-0.6,1.3-1c0.6-0.4,1.1-0.9,1.5-1.5c0.5-0.5,0.9-1.1,1.1-1.8c0-0.1,0-0.2,0.1-0.4l-1.6,0.1c-0.7,0-1.3-0.2-1.8-0.7
		c-0.4-0.4-0.7-0.9-0.6-1.5c0.1-0.4,0.2-0.7,0.3-1.1c0.2-0.4,0.5-1.2,1.1-2.3c0.3-0.6,0.7-1.3,1.1-1.9c0.5-0.7,1-1,1.5-1
		c0.8,0,1.6,0.4,2.1,1c0.6,0.6,0.9,1.5,0.9,2.4c0,0.5,0,0.9-0.1,1.4l-0.2,1.2c-0.1,0.4-0.1,0.8-0.3,1.2
		C141.1,316.6,141,317,140.8,317.4z"/>
	<path class="st2" d="M130.6,309.7c0,0.8-0.1,1.5-0.3,2.3c-0.2,1.1-0.4,2-0.6,2.8l-0.7,2.8c-0.4,1.1-0.7,1.9-1,2.4
		c-0.3,0.6-0.6,1.2-1,1.8c-0.2,0.4-0.6,0.8-0.9,1.1c-0.5,0.4-1.1,0.7-1.6,1l-2.2,0.9c-0.5,0.1-0.9,0.3-1.4,0.4
		c-0.5,0.1-0.9,0.2-1.4,0.2c-0.2,0-0.3-0.1-0.4-0.2c0-0.2,0-0.4,0.1-0.5c0.4-0.6,0.9-1.1,1.5-1.5c0.8-0.6,1.6-1.2,2.4-1.8
		c0.9-0.8,1.6-1.4,2-1.9c0.7-0.7,1.3-1.5,1.8-2.4c0.2-0.4,0.4-0.8,0.5-1.2c0.2-0.6,0.6-1.6,1.1-2.9l0.7-2.1c0.1-0.3,0.2-0.7,0.4-1.1
		s0.4-0.7,0.6-0.7C130.4,309.2,130.5,309.4,130.6,309.7z"/>
	<path class="st2" d="M118.9,310.1c0,0.8-0.1,1.5-0.3,2.3c-0.2,1.1-0.4,2-0.6,2.8l-0.7,2.8c-0.4,1.1-0.7,1.9-1,2.4
		c-0.3,0.6-0.6,1.2-1,1.8c-0.2,0.4-0.6,0.8-0.9,1.1c-0.5,0.4-1.1,0.7-1.6,1l-2.2,0.9c-0.5,0.1-0.9,0.3-1.4,0.4
		c-0.5,0.1-0.9,0.2-1.4,0.2c-0.2,0-0.3-0.1-0.4-0.2c0-0.2,0-0.4,0.1-0.5c0.4-0.6,0.9-1.1,1.5-1.5l2.4-1.8c0.9-0.8,1.6-1.5,2-1.9
		c0.7-0.7,1.3-1.5,1.8-2.4c0.2-0.4,0.4-0.8,0.5-1.2l1.1-2.9l0.7-2.1c0.1-0.3,0.2-0.7,0.4-1.1s0.4-0.7,0.6-0.7
		C118.7,309.7,118.9,309.9,118.9,310.1z"/>
	<path class="st2" d="M123.1,297c0.1,0.4,0,0.8-0.1,1.2c-0.2,0.5-0.4,1-0.7,1.5c-0.3,0.6-0.7,1.1-1.2,1.5c-0.2,0.2-0.5,0.4-0.8,0.5
		c-0.3-0.1-0.6-0.3-0.8-0.5c-0.4-0.4-0.8-0.7-1.1-0.9c-0.3-0.2-0.6-0.5-0.9-0.7c-0.2-0.1-0.3-0.4-0.4-0.6c0.2-0.5,0.4-0.9,0.5-1.2
		c0.4-0.9,0.7-1.5,0.9-1.9c0.4-0.6,0.7-1.2,1.1-1.8l0.4-0.5c0.1,0.1,0.2,0.2,0.4,0.3c0.1,0.1,0.3,0.2,0.5,0.3
		c0.6,0.4,1.2,0.9,1.7,1.5C122.8,296.1,123,296.6,123.1,297z"/>
	<path class="st2" d="M114.5,292.1c-0.1,0.5-0.2,0.9-0.4,1.4c-0.2,0.4-0.4,1.1-0.8,1.9s-0.6,1.2-0.7,1.4c-0.3,0.5-0.6,0.7-0.8,0.7
		l-0.4-0.3c-0.1-0.1-0.3-0.1-0.4-0.1c-0.7,0.1-1.3,0.3-1.9,0.6c-0.9,0.5-1.7,1-2.5,1.7c-0.9,0.7-1.7,1.6-2.4,2.5
		c-0.4,0.4-0.7,0.9-0.8,1.5c0,0.4,0.2,0.7,0.4,1l1.1,0.5c0.3,0.1,0.5,0.2,0.8,0.3c0.2,0.1,0.4,0.2,0.6,0.4c0.7,0.6,1.1,1.6,1,2.5
		c0,2-0.4,4.1-1,6c-0.6,2.1-1.5,4.1-2.7,5.9c-0.6,0.8-1.3,1.6-2,2.3c-0.8,0.7-1.6,1.4-2.5,1.9c-1.7,1.1-3.8,1.7-5.8,1.6
		c-2.6,0-4.4-0.8-5.6-2.4c-0.6-0.8-1-1.6-1.3-2.6c-0.2-0.9-0.3-1.7-0.3-2.6c0-1,0.1-2,0.2-3c0.2-1,0.4-2,0.7-3
		c0.5-1.6,1.1-3.2,1.9-4.7l1.8-3.6l1.4-2.8c0.2-0.3,0.3-0.6,0.5-0.9s0.3-0.5,0.4-0.5c0.3,0,0.4,0.2,0.4,0.5c0,0.2,0,0.4-0.1,0.6
		c-0.2,0.6-0.4,1-0.6,1.4s-0.4,1-0.9,1.9c-0.2,0.5-0.6,1.2-1.1,2.3c-0.2,0.5-0.5,1.1-0.7,1.6c-0.9,2.1-1.5,4.3-1.7,6.6
		c-0.1,1.4,0.6,2.8,1.7,3.7c1.4,1,3.1,1.5,4.8,1.4c1.7,0,3.4-0.4,5-1.2c1.1-0.5,2.1-1.2,3-2.1c0.7-0.7,1.3-1.5,1.8-2.4
		c0.4-0.6,0.6-1.3,0.6-2c0-0.4-0.3-0.6-0.8-0.8s-1-0.3-1.2-0.3c-0.3-0.1-0.6-0.2-0.8-0.3c-0.5-0.2-1-0.6-1.4-1
		c-0.3-0.5-0.5-1.1-0.5-1.7c0.1-1.5,0.5-2.9,1.1-4.2c0.8-1.8,1.9-3.5,3.2-5.1c0.9-1.2,2-2.3,3.1-3.3c0.5-0.4,1.1-0.9,1.9-1.5
		c0.7-0.5,1.5-1,2.2-1.4c0.6-0.4,1.4-0.7,2.1-0.9c0.2,0.1,0.3,0.2,0.4,0.3C114.6,291.8,114.6,291.9,114.5,292.1z"/>
</g>
</svg>
