<svg id="Layer_1" data-name="Layer 1" xmlns="http://www.w3.org/2000/svg" viewBox="0 0 383.28 319.45"><defs><style>.cls-1{fill:#fff;}</style></defs><path class="cls-1" d="M0,278.79a10.34,10.34,0,0,0,.74-1.63c3.63-13.35,14.1-21.53,27.91-21.56q41.36-.07,82.71,0H353.89c15.27,0,26.83,9.21,28.87,23.83a59.8,59.8,0,0,1-.39,18.21c-2.09,12.1-13.07,21.07-25.32,21.68-1.37.06-2.74.08-4.11.08q-161.31,0-322.62.06c-11.91,0-21.08-4.36-26.95-14.83C1.87,302,1.1,298.89,0,296Z"/><path class="cls-1" d="M151.77,111.86V107c0-28.18.33-56.37-.15-84.55C151.39,9.36,160.75-.61,174.22,0,185.8.58,197.44.58,209,0c13.22-.63,22.89,9,22.63,22.78-.52,28.05-.15,56.12-.15,84.18v4.87h4.31c12.72,0,25.44.07,38.16,0,5.66,0,10.05,1.93,12.39,7.22s.81,9.9-3.09,14q-41.1,43-82.17,86c-6,6.26-13,6.23-18.92,0q-41.1-43-82.17-86c-3.91-4.09-5.47-8.64-3.11-14s6.73-7.27,12.39-7.23C123.24,111.93,137.2,111.86,151.77,111.86Z"/></svg>