<svg id="Layer_1" data-name="Layer 1" xmlns="http://www.w3.org/2000/svg" viewBox="0 0 236 237"><path d="M176,237H63a39.71,39.71,0,0,0-4.72-1.38c-29.18-5-52.58-31.09-53-60.47C4.71,139.49,5,103.83,5,68.17a64.72,64.72,0,0,1,.93-12.92C12.64,22.74,38.39,2.07,72.49,1.9c31-.16,62-.07,93,0a77.56,77.56,0,0,1,12.94.79c28.31,4.81,49.72,25,54.08,53.51,2.19,14.35.95,29.23,1.11,43.87a5.44,5.44,0,0,1-1.83,3.27c-11.6,11.21-23,22.61-35,33.44-10.21,9.25-20.48,18.63-31.74,26.49-13.68,9.55-29.46,12.18-45.81,8-4.5-1.15-6.29.34-7.21,4.1-1.53,6.24-2.87,12.54-4.34,19.06a8.53,8.53,0,0,1-2.13,0c-14-3.32-27.36-18.66-28.09-33a13.63,13.63,0,0,0-4.83-10.22c-8.36-7.75-12-17.42-10.31-28.85,1.21-8,5-14.85,10.1-20.87,17.1-20,38.93-31.08,65-32.88,14.22-1,27.09,3.14,36.18,15.22,3.74,5,3.5,8.33-.84,12.81a24,24,0,0,1-4.19,3.54c-15,9.49-31.34,13.82-49,12.37-12.06-1-16.6-6.62-16.41-18.62a28.56,28.56,0,0,0-.43-3.35c-7.48,2.73-11.91,7.86-14.87,14.38-4.73,10.42-1.71,19.39,5.85,27-14.13,20.75-9.69,46.55,9.22,53,1.89-24.63,19.4-35.66,39.08-44.78,6.35-2.93,12.6-6.07,19-8.87,21.18-9.26,32.9-25.23,34.73-48.35s-6.19-44-28.45-54.74c-16.38-7.88-33.19-7.31-49.94-.89C65.13,47.27,29.9,111,36.74,159.32c2.61,18.42,10.5,33.91,25.72,45.14,30.32,22.37,72.42,20.2,103.14-5.22,15.17-12.56,27-28.08,38.57-43.76,6.75-9.09,13.6-18.11,20.63-27,2.28-2.88,5.26-5.2,8.89-8.71,0,16.26,0,30.88,0,45.51,0,5,.48,10.09-.3,15-4.68,29-25.5,50.13-54.2,55.49A17.06,17.06,0,0,0,176,237Z"/></svg>