<svg id="Layer_1" data-name="Layer 1" xmlns="http://www.w3.org/2000/svg" viewBox="0 0 508.83 509.76"><path d="M178.1,0H330.51c11.9.66,23.8,1.28,35.7,2C387,3.22,407.42,6.8,426.52,15.4c46.89,21.09,71.59,58.65,79.27,108.46,1.36,8.8,2,17.71,3,26.56V355.63c-.3,2.28-.63,4.56-.9,6.84C506.57,373.65,506,385,503.75,396c-10.12,48.72-37.64,83.33-84.47,101.56-22.44,8.74-46.08,11.12-69.88,11.36-53.94.55-107.89,1.06-161.84.77-26.5-.14-53.13-.25-79.2-6.57-42.21-10.25-73.56-34.19-92.2-73.71-11.47-24.32-15-50.49-15.26-77C.32,297.26-.29,242.14.15,187a504.73,504.73,0,0,1,5-69.41C10.39,82,27.58,52.33,56.77,30.43c25-18.77,54-26.23,84.61-28.4C153.61,1.17,165.86.67,178.1,0ZM255,465l0-.78c13.45,0,26.91.4,40.34-.08,28.83-1,57.88-.71,86.43-4.28,39.22-4.91,65.82-27.41,75.46-66.45,3.89-15.77,5.24-32.47,5.52-48.79q1.32-76.92.76-153.88a518.51,518.51,0,0,0-3.73-62C454.57,87.73,429,60,388.59,51.93c-17.44-3.48-35.56-4.53-53.41-4.82-44.64-.75-89.3-.61-134-.46-25.54.08-51.15-.25-76.46,4.2-38.64,6.81-65.15,31.34-73.05,69.87-3.41,16.61-4.53,33.88-4.89,50.89-.87,40.82-1.2,81.68-.74,122.51.32,28.84,1.08,57.78,3.84,86.47,2.7,28,15.92,51.16,40.5,66.42,16.62,10.31,35.3,14.44,54.55,15.13C181.62,463.45,218.3,464.06,255,465Z"/><path d="M123.7,255C123.81,182.6,182.8,123.8,255,124.1c72.57.3,131.18,59.18,130.73,131.33-.45,72.43-58.89,130.74-131,130.67C182.41,386,123.59,327.16,123.7,255Zm46.16,0a84.89,84.89,0,1,0,84.86-84.8A84.65,84.65,0,0,0,169.86,255Z"/><path d="M391.57,88.41a30.51,30.51,0,0,1-1.24,61,30.51,30.51,0,1,1,1.24-61Z"/></svg>