<?xml version="1.0" encoding="UTF-8"?><svg id="a" xmlns="http://www.w3.org/2000/svg" viewBox="0 0 418 370.07"><defs><style>.b{fill:#fff;}</style></defs><path class="b" d="M418,369.95c-.59,.04-1.19,.12-1.78,.12-138.15,0-276.3,0-414.45,0H.1c-.02-.52-.06-.94-.06-1.37,0-87.22-.13-174.45,.1-261.67,.05-20.39,9.78-35.75,27.89-45.15,21.29-11.05,42.88-21.5,64.29-32.32,11.44-5.79,23.01-11.25,35.12-15.52,15.4-5.43,31.18-9.31,47.35-11.61C188.83,.43,202.94-.35,217.1,.15c34.29,1.22,67.01,9.07,97.84,24.18,25.37,12.43,50.67,25.04,75.78,37.99,15.1,7.79,23.81,20.61,26.58,37.4,.31,1.88,.46,3.78,.69,5.67V369.95Zm-11.07-10.9v-1.77c0-83.15,0-166.3-.02-249.45,0-2.03-.1-4.08-.41-6.09-2.1-13.56-9.19-23.69-21.37-29.99-13.01-6.73-26.15-13.2-39.26-19.74-13.82-6.89-27.51-14.08-41.55-20.5-29.98-13.71-61.58-20.35-94.54-20.52-10.4-.05-20.75,.63-31.07,1.98-16.09,2.11-31.76,5.89-47.08,11.24-12.2,4.27-23.81,9.82-35.33,15.64-21.09,10.65-42.33,21.01-63.34,31.82-14.27,7.35-21.86,19.49-21.89,35.5-.17,83.51-.08,167.02-.08,250.53v1.34H406.93Z"/><path class="b" d="M380.86,338.52H37.1v-1.63c0-70.59-.12-141.19,.08-211.78,.05-17.71,8.47-31.17,24.13-39.37,20.01-10.47,40.29-20.43,60.55-30.42,16.93-8.34,34.78-13.94,53.39-17.13,13.16-2.25,26.41-3.22,39.74-2.79,30.15,.97,58.65,8.42,85.55,22.08,18.29,9.29,36.7,18.35,55,27.61,13.63,6.89,21.87,17.92,24.67,32.93,.44,2.38,.61,4.84,.61,7.27,.03,70.63,.03,141.27,.03,211.9v1.32Zm-16.95-16.94v-1.64c0-64.72,.04-129.44-.04-194.16-.01-11.48-5.38-20.09-15.6-25.3-18.13-9.25-36.44-18.16-54.56-27.42-21.92-11.2-45.05-18.08-69.58-20.13-14.47-1.21-28.89-.69-43.25,1.55-17.02,2.66-33.42,7.45-48.95,14.91-13.85,6.65-27.52,13.68-41.26,20.55-7.46,3.73-15.06,7.22-22.33,11.29-9.05,5.06-14.16,13.06-14.18,23.46-.13,65.2-.07,130.4-.07,195.59v1.3H363.91Z"/><path class="b" d="M210.51,268.91c-1.48,2.14-2.8,4.13-4.19,6.07-3.04,4.22-6.95,7.08-12.25,7.82-2.37,.33-4.7,.91-7.06,1.31-.71,.12-1.45,.02-2.18,.02l-.16-.44c.56-.45,1.09-.94,1.69-1.33,4.1-2.7,8.29-5.27,12.29-8.11,6.2-4.39,10.66-10.23,13.78-17.16,1.69-3.74,3.58-7.39,5.45-11.04,.23-.45,.92-.65,1.4-.97,.09,.57,.38,1.2,.24,1.71-.47,1.6-1.25,3.12-1.63,4.74-.28,1.15-.37,2.47-.1,3.61,1.41,6.12,7.12,9.9,13.14,8.81,2.59-.47,4.41-2.17,6.1-3.99,1.38-1.49,2.64-3.1,3.95-4.66,1.88-2.26,3.53-2.58,6.06-1.18,3.35,1.86,3.44,1.83,6.02-.95,4.07-4.39,8.1-8.83,12.26-13.14,1.94-2.01,4.32-3.4,7.18-3.79,3.27-.45,6.62,2.24,6.62,5.55,0,1.56-.16,3.27-.79,4.67-3.31,7.41-7.77,14.04-14.79,18.38-7.69,4.75-15.59,4.47-23.33-.11-.8-.47-1.41-.34-1.89,.27-.76,.97-1.46,2-2.08,3.06-1.42,2.45-2.75,4.95-4.15,7.41-.37,.65-.89,1.23-1.33,1.84-4.82,6.78-13.8,4.5-17.27-.54-1.6-2.32-2.45-4.91-2.97-7.86Zm63.84-20.41c-2.76-4.12-8.17-4.89-11.94-1.49-2.89,2.61-5.45,5.6-8.15,8.43-.06,.06-.03,.2-.06,.37,7.93,.89,14.56-1.65,20.15-7.3Z"/><path class="b" d="M208.99,96.87c15.82,0,31.65,0,47.47,0,3.31,0,5.65,2.25,5.62,5.38-.02,2.8-2.21,5.11-5.01,5.28-.24,.01-.48,0-.72,0-31.61,0-63.22,0-94.83,0-3.91,0-6.55-3.29-5.46-6.86,.65-2.14,2.15-3.4,4.37-3.74,.51-.08,1.04-.06,1.55-.06,15.66,0,31.33,0,46.99,0Z"/><path class="b" d="M189.43,245.9c-.15,5.05-1.56,9.4-3.42,13.62-2.87,6.54-6.6,12.5-11.99,17.29-3.22,2.86-6.87,4.85-11.35,4.6-1.37-.08-2.8-.34-4.07-.85-5.51-2.21-10.13-.8-14.26,3.14-.66,.63-1.39,1.25-2.2,1.62-.51,.22-1.43,.17-1.81-.16-.39-.34-.45-1.17-.47-1.79-.01-.4,.27-.83,.5-1.2,3.51-5.45,7.07-10.86,11.91-15.25,3.28-2.97,7-5.08,11.62-4.87,1.54,.07,3.08,.44,4.6,.73,4.92,.95,8.83-1.02,12.21-4.31,1.24-1.2,1.11-2.06-.05-3.32-.19-.21-.41-.39-.59-.6-.95-1.14-1.92-1.6-3.43-.75-1.74,.98-3.71,.85-5.6,.27-3.13-.97-4.59-4.01-3.35-7.04,1.3-3.17,2.6-6.35,4-9.48,.6-1.34,1.37-2.62,2.19-3.84,1.42-2.1,2.91-2.61,5.38-2.03,4.94,1.15,9.21,6.11,9.89,11.49,.13,1.03,.21,2.06,.27,2.73Z"/><path class="b" d="M178.28,199.01c-.45,1.22-.73,2.74-1.51,3.92-1.42,2.15-3.05,4.18-4.77,6.11-1.48,1.67-2.22,1.6-3.94,.22-2.09-1.67-4.17-3.35-6.3-4.96-.75-.57-.79-1.06-.3-1.8,2.67-4.03,5.3-8.08,8-12.09,.23-.34,1.03-.67,1.31-.53,2.81,1.5,5.46,3.23,6.76,6.33,.33,.8,.46,1.68,.76,2.79Z"/><path class="b" d="M194.9,197.91c-.53,1.42-.79,2.86-1.54,3.97-1.51,2.23-3.2,4.36-4.98,6.39-1.27,1.43-2.09,1.34-3.58,.17-2.19-1.72-4.39-3.45-6.61-5.13-.62-.47-.67-.92-.28-1.52,2.67-4.11,5.35-8.22,8.01-12.33,.43-.66,.94-.81,1.62-.42,2.26,1.3,4.49,2.68,5.83,5,.68,1.18,1.03,2.55,1.54,3.87Z"/></svg>