<svg id="Layer_1" data-name="Layer 1" xmlns="http://www.w3.org/2000/svg" viewBox="0 0 334.57 341.12"><defs><style>.cls-1{fill:#fff;}</style></defs><path class="cls-1" d="M129.27,341.12c-7.51-2.87-10.05-8.61-9.83-16.28.24-8.33,0-16.67.1-25,0-2.09-.73-2.93-2.65-3.37a68.69,68.69,0,0,1-7-2.11c-5.26-1.83-6.66-4.12-5.7-9.58,1.51-8.64,3.23-17.24,4.68-25.88,3.18-18.93,6.61-37.83,9.2-56.85,1.2-8.75.71-17.74.82-26.62,0-1.09-1-2.2-1.52-3.3-.7,1-1.87,1.94-2,3q-1.89,12.81-3.41,25.66c-.42,3.52-.08,7.13-.61,10.63a12.38,12.38,0,0,1-12.51,10.29c-6,0-11.91-4.31-12.18-10.21-.95-20.56-.14-41,11.24-59.2,9-14.49,22.62-21.85,39.27-23.87A70.29,70.29,0,0,1,170,131.73c12.37,4.47,21.42,12.78,27.67,24.2s8.91,24.1,9.58,37.08c.31,6.08,0,12.2,0,17.39a85.47,85.47,0,0,1,7.68,5.07c4.68,3.88,9.93,4.11,15.42,2.75a34.79,34.79,0,0,0,8.13-2.88c16.2-8.74,42.85-.88,47,24.76a130.26,130.26,0,0,1,1.33,13.23c.28,4.53-2.15,7.5-6,7.73s-6.4-2.68-6.94-7.33c-.52-4.49-1.46-8.93-2.31-13.37a3.82,3.82,0,0,0-1.87-2.3c-.09,1.19-.28,2.37-.28,3.56.09,29.22.1,58.44.37,87.66.05,5.45-1.41,9.51-6.53,11.84h-4c-5-2.47-6.45-6.54-6.28-12,.33-10.2.1-20.42.1-30.63,0-3.66.07-7.33-.07-11,0-.81-.81-1.59-1.25-2.39a14,14,0,0,0-1.49,2.47,7.39,7.39,0,0,0-.06,2.31c0,13.21-.17,26.42.09,39.62.11,5.35-1.49,9.23-6.38,11.57h-4c-4.94-2.3-6.47-6.25-6.48-11.56-.1-30.45-.43-60.9-.67-91.35,0-1.29,0-2.58,0-4.27-13.65,2.95-24.43-.42-31.72-12.28l-1.42.47c-8.58,2.94-16.39-2-17.28-11-.32-3.2-.19-6.44-.21-9.66-.07-9.14-.64-18.21-4.11-26.82a19.65,19.65,0,0,0-1.69-2.8l-1,.19a22.23,22.23,0,0,0-.66,3.65c-.36,20.75,2.34,41.2,6.14,61.54,3,15.82,5.78,31.67,8.57,47.52,1,5.79-.24,7.76-5.89,9.72-3,1-6.11,1.95-9.39,3,0,9.11-.25,18.22.07,27.31.28,7.72-2.29,13.37-9.67,16.38h-5.33c-7.51-2.73-10.39-8.23-10.07-16,.29-7,.06-14,.06-20.94v-4.83H144.7c-.06,1.23-.15,2.32-.16,3.4,0,7.42-.19,14.85.05,22.27.24,7.71-2.46,13.34-10,16.12Z"/><path class="cls-1" d="M235.67,25.43c0-2.75-.13-4.94,0-7.11.67-9.12,6-14.93,15.06-15.64a95.23,95.23,0,0,1,16.63.22A14.54,14.54,0,0,1,280.7,16.47c.53,8.19.46,16.43.33,24.65,0,3.07.82,4.65,3.75,5.89,13.91,5.85,27.71,11.93,41.53,18,6,2.63,9,7.64,8.11,13.07-1.36,8.17-9.21,12.39-17.2,9C307.09,82.84,297.06,78.37,287,74Q231.78,49.93,176.57,25.84a7.43,7.43,0,0,0-6.3,0Q94.48,56.32,18.63,86.66c-7,2.81-12.7,1.69-16.17-3.16C-2.41,76.7.15,68.38,8.32,65c10.15-4.18,20.37-8.19,30.57-12.27q63.93-25.6,127.85-51.29a17.16,17.16,0,0,1,14.38.24C198,9.25,215.06,16.55,232.05,23.94,233,24.37,234,24.76,235.67,25.43Z"/><path class="cls-1" d="M118.52,90.65a28.4,28.4,0,1,1,28.34,28.4A28.46,28.46,0,0,1,118.52,90.65Z"/><path class="cls-1" d="M234.45,189.92a18.11,18.11,0,1,1,18,18A18.1,18.1,0,0,1,234.45,189.92Z"/></svg>