<svg id="Layer_1" data-name="Layer 1" xmlns="http://www.w3.org/2000/svg" viewBox="0 0 567.68 770.12"><defs><style>.cls-1,.cls-3{fill:#7df911;}.cls-2{fill:#187f1a;}.cls-3{font-size:34.52px;font-family:BTitrBold, B Titr;}</style></defs><path class="cls-1" d="M381.08,102c1.3,56.42-45.35,102.38-100.58,102.63-58.64.26-103-44.94-103.56-101.65C176.33,45.33,224.05-.56,280,0,334.05.55,382.41,45.21,381.08,102Z"/><path class="cls-2" d="M306,451.6c.74-.7,1.53-1.2,2.62-.63,1.08,1.29.67,2.82.44,4.27-2.18,13.57-4.66,27.08-9.42,40-4.27,11.61-20.66,21.86-32.84,19.94-46.55-7.33-87.82-25.94-123-57.65-25.52-23-41-51.84-50.67-84.32-13.41-45-17.06-91.23-16.76-137.89.35-52.63,5.39-104.79,16.71-156.26,3.44-15.63,7.66-31.06,14.37-45.66,2.34-5.12,4.84-10.28,11.1-13.6-.88,6-2.2,11-2.29,16.1-.92,52.46,16.55,98.32,49.92,138.48,19.32,23.25,43.65,39.93,69.65,54.75,31.6,18,60.9,39.19,85.61,66.22,3.65,4,6.32,8.9,11.27,12.52,3.63-7.71,7.1-15.05,10.56-22.38l1.57.53c-1.67,4.63-3.24,9.3-5,13.88-3.92,10-7.78,20-8.93,30.85-2.24,21.1,8.37,32.07,29.44,29.33,15.52-2,28.29-9.43,36.85-23.05,2-3.25,3.5-6.64,1.95-10.83-3.54-2.82-8.25-2.88-12.39-4.42-7.31-2.72-9.59-5.64-9.39-13.37.23-9.06,4.32-16.85,8.46-24.56,7.46-13.93,18.37-24.81,31.07-33.94,2.75-2,5.57-4.37,10.33-4,.65,7.78-3.39,14-6,20.38-19.57,4-34,16.19-34.42,28.86,2.47,3.53,6.64,4.06,10.36,5.25,4.62,1.48,7.44,4.5,7.53,9.17.51,28.25-7.46,52.74-31.87,69.6-6.6,4.55-14.18,6.31-22,6.3-15.44,0-25.81-9.59-27.61-25-1.6-13.7,1.67-26.82,5.21-40.49-5.89-8.45-13.58-15.53-21.3-22.54-23.84-21.65-51.54-37.67-79-54-20.64-12.26-40.87-25.1-59.34-40.51-23.77-19.82-39.2-45.66-52.64-73-2.77-5.65-5.29-11.65-11.34-17.06-.49,25-3.44,48.49-6.44,71.92-6.15,47.95-5.07,95.82,1.66,143.55,5.37,38.08,16.7,74.19,40.93,104.89,28.71,36.35,66.35,59.24,110.92,71,6,1.58,11.88,3.85,18.29,4.25,16.11-10.25,28.91-22.91,31.74-43Q303.9,458.56,306,451.6Z"/><path class="cls-1" d="M306,451.6q-2.13,7-4.25,13.94c-5,0-8.24-3.32-11.29-6.44-7-7.16-14.74-11.24-25.22-12.13a86.11,86.11,0,0,1-31.86-9.55c-2.73-1.4-6.32-.9-9.78-5,14.23,1.07,26.16,7.71,40.37,6.3l-28.12-27.27c-17.58-7.38-37.19-15.39-53.84-29-2.34-1.91-4.6-3.86-5.37-7l-.11.06c15.64,9.49,31.46,18.59,49.37,23.46-11.46-14.16-21.13-29.28-37.24-39.26a140.21,140.21,0,0,1-42.86-41.48c-1.5-2.24-2.67-4.7-4-7.05l-.12.1c6,1.58,8.86,7,12.56,11.07C164,333.13,176,341.08,186.61,350.6c.93.83,2.22,1.07,4.42.17-24.36-39.18-43.54-80.41-50.33-126.47,12.5,33,26.5,65.19,46.73,94.56,3.29-13.28-4.36-25.31-4.35-38.2,6.1,8.94,8.92,19.15,10.91,29.39,1.5,7.78,4.51,15.42,3.72,23.58-.24,2.5,1.43,4.23,2.58,6.08,8.1,13,17.72,24.93,26.89,37.17,1.27,1.69,3.08,3,5.94,5.69A266.38,266.38,0,0,0,212,313.27c18.62,23.87,25.65,52.14,30.83,81.45,8,7.88,15.53,16.71,25.53,23.28-2.45-24-10.45-46.19-19.1-68.25,17.55,23.39,24,50.88,29.42,78.7,3.3,3.82,6.79,7.28,11.27,9.56-1.92,1.75-5.93,1.34-5.83,5.72,4.45.5,8.35-1.22,12.39-1.74C297.73,447.15,302.8,448.48,306,451.6Z"/><path class="cls-2" d="M296.54,442c-4,.52-7.94,2.24-12.39,1.74-.1-4.38,3.91-4,5.83-5.72,20.85-10.75,32.65-29.13,41-51.28,2.65,4,.69,6.21.31,8.46-1.37,8.12,1.6,15.22,8,18.61,6.64,3.55,13.57,2.17,19.69-3.91.53-.53,1-1.11,1.52-1.65,10.73-11.37,14.49-11.65,26.44-1.69,9.59-12,18.64-24.43,26.26-37.77,3.95-6.89,3.66-14.94,3.68-22.71.05-12.72,4.71-24.08,10.47-35.21-2.85,21.21,1.18,43.41-10,62.77.94,4,4,5.71,6.07,8.09,4.18,4.76,4.9,9.67,1.37,15-3.35,5.06-7.84,6.83-13.57,4.3-5.47-2.42-9.54-.28-13.4,3.55-8.6,8.52-13.23,19.24-17.25,30.35-.9,2.48-.94,5.46-3.75,7-2.79-1.79-.88-4.1-.62-6.06.42-3.2,1.52-6.32,1.87-9.53.52-4.87-.87-9-6-10.85s-8.81.46-11.75,4.31c-2,2.57-3.52,5.44-5.24,8.2-8.62,13.8-18.3,15.68-31.38,5.49-2,14.09-4.41,27.74-3.76,41.71.38,8,4.05,13.94,11.79,16.58,7.46,2.54,13-.87,17.69-6.51,2.21-2.68,4.68-5.15,6.47-7.1,4.82-2,8,.9,12.37,1.87,5.73-6.13,11.71-12.42,17.54-18.84a31.15,31.15,0,0,1,9.35-7.36c3.58-1.74,7.26-2.31,10.61.35,3.55,2.82,4.08,6.7,2.92,10.87-.53,1.92-1.29,3.77-1.95,5.66a11.62,11.62,0,0,0-3.69,7c-.73.25-.85.5-.33.64.07,0,.25-.38.38-.58a10.92,10.92,0,0,0,5.17-5,23.71,23.71,0,0,0,5.64-15.12c.18-9.83,5.25-17.86,9.71-27.11,3.41,17.43-6.17,46.84-19.49,56.28C388.35,498,371,503.37,352.11,494c-3.37.46-4.12,3.36-5.4,5.69-2.27,4.16-4.3,8.46-7.36,12.14-7.28,8.75-19,8.28-25.28-1.28-4.31-6.5-5.4-13.93-4.61-21.56,2.19-21.05,4.93-42,8.55-63.19C312.36,433.3,306.52,440.44,296.54,442ZM401.7,470.27c-8.8-8.91-21.86-3.62-26.69,10.15C385.53,481.82,394,477.84,401.7,470.27Z"/><path class="cls-2" d="M12.34,590.94c-1.47,5.54-3.4,11-3.72,16.77-.65,11.59,5.24,17.87,16.84,18,14,.16,27.9-10,30-21.91-1.1-2.82-3.79-2.91-6.14-3.61-8.08-2.41-9.8-4.74-8.21-13.06,2.17-11.41,8.57-20.59,16.67-28.62,4.57-4.53,9.27-9,16.14-11,1.47,5.43-1.41,9.34-3.19,13.38-15.69,5-23,11.51-23.28,20.77.16.19.27.47.47.58,13,6.87,13.17,7.63,10.33,22.62-2.77,14.63-9.1,26.76-22.22,34.78-4.78,2.93-5.89,10.37-2.74,15.26s10.37,6.14,15.25,2.66a27,27,0,0,0,3.25-3.09c7.2-7.21,9.48-7.42,18-1.41,6.55-7.47,12-15.75,17.27-24.15,2.59-4.16,2.78-9,2.87-13.76a54.41,54.41,0,0,1,6-24.51l1.27,1.29-.54,8.78c-1.25,2.64-.87,5.39-.52,8.14.15,7.91-2.28,15.23-5.2,22.24,8,13.63,7.94,14.42-.48,19.49l-8.25-1.6c-11.19,5.87-13.89,17.77-19.2,29.29-1.47-3.89.2-6.28.58-8.71.61-3.92.71-7.75-3.61-9.58s-7.08.79-9.29,4.13c-1.09,1.67-2.13,3.38-3.08,5.13-5,9.19-18.71,10-22-1.06a26.22,26.22,0,0,0-1.72-3.36c-5.44,9-12.43,14.48-23.74,12.94,13.88-8.08,24.86-18.53,29.79-34.7-7.67-.58-15.48.8-21.19-5.52-3.55-3.92-4.93-8.56-5.23-13.66,0-2.28,0-4.56.07-6.83a71.9,71.9,0,0,1,7.11-26.45Z"/><path class="cls-2" d="M330.36,678.3a129.24,129.24,0,0,0,27.48-28.4c6.36-8.79,13.73-16.56,24.7-19.76a5.3,5.3,0,0,0,4-3.41c-.53-7.34-8.93-1.08-11.09-6.19-1.71-7.21,3.32-11.69,6.39-16.56,5.59-1.18,7.69,1.93,9.22,5.51,1.71,4,2.57,8.54,1.17,12.49-2.58,7.22-2.12,15-5,22.18-3.16,7.93-5.53,16.72,2.12,23.72s16.7,6,25.52,3.23c15.44-4.88,25.51-22,22.17-37-2.63-2.07-6.6.67-9.88-3.48-.86-6.79,2.84-12.38,8.5-17.55,5.63,1.88,7.85,6,7.85,11,0,21.28-6.13,40.35-21.19,55.93a28.85,28.85,0,0,1-12.62,7.82c-20,5.84-33.33-5.92-30.34-26.51,1.33-9.21,5.35-17.53,9.18-27.41-5,4.1-9,7.12-13.82,8.75s-8.14,5.52-11.48,9.3c-9.4,10.63-18.13,22.08-31.83,27.81Z"/><path class="cls-2" d="M331.13,622.39l7.75-.77,9.2-12.45c1.63-2.2,3.16-4.5,5.72-5.81s5.22-1.92,7.71.1c2.19,1.78,2.31,4.18,1.84,6.81A29.82,29.82,0,0,1,339,634.46c-1.94.32-3.86.8-6.11,1.27-2,9.85-3.47,19.73-7.61,28.88-5.37,11.88-12.3,22.4-25,27.49-8.85,3.55-17.79,3.79-25.41-2.74-7.18-6.16-7.78-14.39-6.26-23.34a66.54,66.54,0,0,1,10.46-26.21c-1.46,4.93-3.08,9.81-4.34,14.79-3.5,14,2.7,22.38,17.06,23.38,15.57,1.09,31.07-10.86,34.4-26.6a84.88,84.88,0,0,0,1.58-18.63C327.71,629.27,327.67,625.7,331.13,622.39Zm24.53-11.56c-.25-.8-.75-.77-1.35-.41a16.18,16.18,0,0,0-11.24,11c7.3.89,11.62-3,15.83-8Z"/><path class="cls-2" d="M171.34,645.19c4.66-6.3,8.67-13.72,17.9-11.65,3.58,2.7,2.33,6.47,4.23,9.28,2.27-8.3,3-17,9.1-24.4,1.18,33.89-22.81,53.28-49.78,43.06-3.23,2.18-4.1,6.06-6.14,9.11-2.93,4.41-6.21,8.15-12.1,6.8-5.73-1.33-8.32-5.42-9.7-11.08-1.51-6.13,0-11.94.55-17.83,1.14-12.18,2.59-24.34,6.07-36.12.65-2.21.76-5,4.16-6.47-1.25,9.56-2.5,18.61-3.58,27.67-.41,3.47-.39,7-.62,10.47-.43,6.64.56,12.81,7.56,15.56,6.73,2.64,10.66-2,14.4-6.56a22,22,0,0,1,2.9-2.62c3.14-1.17,5.26,1,7.71,1.08l5.85-4.65.83.74c.28,1.44-1.93,2.43-.72,4,9.18.25,11.46-.73,16.54-7.26-5.53-5.53-9.83-.75-14.38,1.68Q171.71,645.63,171.34,645.19Z"/><path class="cls-2" d="M531.35,639.83l5.95-7.3,6.27-.37c6.07-6.37,8.82-15.67,18.13-18.42,5.9.82,6.47,4.69,5.71,9.36-2.56,15.65-17.11,24.47-32.25,19.36l-5,5.66c-3.58,1.89-6.89-.3-10.44.92-3,1.31-4.59,4.59-6.8,7.24-8.76,10.5-17.1,9.84-24.31-2.53-5.15,7.44-11.62,12.37-22.2,11.37,6.44-5.65,14-8.74,18.78-15,4.65-6.1,7.92-13,11.47-20,.57.71,1.14,1.13,1.07,1.37-1.34,4.8-3.56,9.87,2.22,13.31a13.81,13.81,0,0,0,16.16-.88C520.81,640.26,525.58,638.71,531.35,639.83Zm31.95-15.25c-7.39-3.38-10.64-1.53-14.07,7.83C554.82,631.56,559.35,629.49,563.3,624.58Z"/><path class="cls-2" d="M281.39,626.71c1,3.74-1.71,5.11-3.64,6.94-11.45,10.91-24.37,20.13-38.89,25.86-7.87,3.1-14.31,7.37-20.85,12.14-2.68,2-5.84,3.31-9.15,2.4A24.66,24.66,0,0,0,192,675c.7-8.89,11.89-18.85,20.2-16.64,8.82,2.33,15-.33,19.72-5.14,15.24-3.91,26.39-12.72,40.66-18.84-5.37-3.13-9.65-.28-13.16-2.74-1.11-3,.83-5.13,2.59-7.07a67.76,67.76,0,0,1,8.57-8.29c10.82-8.34,22.45-15.83,27.83-29.44-2.78,19.38-16.13,29.89-33.34,38.09C271.41,629.29,276.67,625.61,281.39,626.71Z"/><path class="cls-2" d="M452.79,325.36c-.58,16-1.67,31.94-9.3,46.52-1.66,3.17-2.93,6.77-7.89,9.51C440.4,365,442,349.53,442.85,334c.68-12.25,6.72-22,12.67-34a20.46,20.46,0,0,1-.84,10.95c-.93,2.71-2.14,5.37-1.19,8.34l-.69,6.14Z"/><path class="cls-2" d="M405.64,440.49c-5.27-2.55-8.61-6.54-12.71-9.88,3.64-7.69,8.09-14.19,12.56-21.15,6,3.16,11,6.78,11,13.43C416.52,430.7,411.51,436,405.64,440.49Z"/><path class="cls-2" d="M446.81,423.65c-.29,14.91.58,30-6.75,43.81-1.58,3-2.55,6.54-6.22,8.14-1.57-2-.24-3.79.15-5.53a158.19,158.19,0,0,0,4.19-31.78c.17-9.07,1.87-17.81,7-25.58l2.57,1.17-.89,8.34Z"/><path class="cls-2" d="M453.48,665.59l-5.11,1.25-.08-2.5c5.19-4.7,12.57-7.25,15-15l-6.36-1.47c-4.38-6.6-1.68-15.6,6.45-21.78,5.7,1.58,7.77,5.95,7,11.3-1.65,11.39-3.89,22.69-16.21,28A.42.42,0,0,0,453.48,665.59Z"/><path class="cls-2" d="M433.69,580.9c2-1.53,2.44-4.18,4.78-5,8,5.23,7.95,11.28-.55,19.17l-5.39-3.75c-2.66.49-2.89,4.1-5.81,4.44-3.19-.56-4.38-3.66-7-5.37,1-5.29,4-9.23,6.48-13.27C429.92,576.31,430.67,580.29,433.69,580.9Z"/><path class="cls-2" d="M300.31,640.66c4.86-18.45-.54-39,11.53-56C308.83,603.52,312.28,623.67,300.31,640.66Z"/><path class="cls-2" d="M363,578c2-4.47,4-8.92,7.29-12.57,2.92.55,4.37,2.64,6.1,4.5,2.89-.69,2.81-4.44,5.3-5.51,8.39,5.74,8.33,11.32-.08,19-2.52,0-3.58-2.47-6-3.57l-5.1,4.7C367,583.38,365,580.93,363,578Z"/><path class="cls-2" d="M115.18,645.7c-.75,3.65-1.4,7.33-2.26,11-3.36,14.17-9.14,19-25.23,19.73,12.51-10,23.31-21.17,26.1-37.61C115.94,640.75,114.88,643.36,115.18,645.7Z"/><path class="cls-2" d="M120.82,582.72c-.74,12.4-1.56,24.77-10.58,34.88,5.36-16.64-.34-35.54,11.1-50.93l.46.47.66-.08-1,7.8Z"/><path class="cls-2" d="M187.79,596.16a22.64,22.64,0,0,1-8.33-7.18,72.39,72.39,0,0,1,8.07-13.28c4.25.88,6.84,3.35,7.48,7.27C196,588.83,192.49,592.63,187.79,596.16Z"/><path class="cls-2" d="M523.1,577c10,5.43,9.71,12.53-1.16,19.26l-7.4-5.51C516.58,584.07,518.07,581.72,523.1,577Z"/><path class="cls-2" d="M325.93,583.51c.45-3.23,2.09-5.16,3.37-7.24s2.24-4.41,4.63-6.07c3.9.86,6.74,3.48,7.07,7.32.45,5.34-2.65,9.21-7.17,11.9C330.42,588.33,328.43,585.79,325.93,583.51Z"/><path class="cls-2" d="M239.3,610.19c-2.73-2-5.18-3.6-7-6.51a33.44,33.44,0,0,1,7.89-12.86C249.34,596.85,249.12,603,239.3,610.19Z"/><path class="cls-2" d="M219.47,602.66l-.42,5.48c-1,4-.52,8-.5,12,0,7.7-1.89,14.8-6.74,20.95l-1.19-2.66.81-4.25.45-.15-.37-.86c.73-7.57,1.36-15.15,2.24-22.7a22.9,22.9,0,0,1,3.9-10.22Z"/><path class="cls-1" d="M12.34,590.94l-1.79-.39c1-5.35,3.76-9.84,6.12-14.53l1.48.61Q15.24,583.79,12.34,590.94Z"/><path class="cls-1" d="M115.18,645.7c-.3-2.34.76-5-1.39-6.92-.18-2.28.48-4.14,3.31-5.9C116.91,637.67,116.8,641.76,115.18,645.7Z"/><path class="cls-1" d="M447.73,413.88l-2.57-1.17c-.13-2.15,1.07-3.33,2.87-4.53A5.71,5.71,0,0,1,447.73,413.88Z"/><path class="cls-1" d="M218.55,620.1c0-4-.5-8,.5-12A42.44,42.44,0,0,1,218.55,620.1Z"/><path class="cls-1" d="M453.49,319.26c-.95-3,.26-5.63,1.19-8.34A18,18,0,0,1,453.49,319.26Z"/><path class="cls-1" d="M219.47,602.66l-1.82-2.45c-.42-1.53.77-2.08,1.78-3.08C220.65,599.14,220.13,600.9,219.47,602.66Z"/><path class="cls-1" d="M403,477.73a11.62,11.62,0,0,1,3.69-7l1.53,2a10.92,10.92,0,0,1-5.17,5Z"/><path class="cls-1" d="M448.29,664.34l.08,2.5a1.82,1.82,0,0,1-2.59.23C445.45,665,446.9,664.71,448.29,664.34Z"/><path class="cls-1" d="M96,608.8c-.35-2.75-.73-5.5.52-8.14A13,13,0,0,1,96,608.8Z"/><path class="cls-1" d="M120.82,582.72l.62-7.86C121.86,577.53,122.23,580.19,120.82,582.72Z"/><path class="cls-1" d="M97.1,591.88l-1.27-1.29c-.37-1.23.07-1.85,1.43-1.83C97.79,589.83,98.43,590.89,97.1,591.88Z"/><path class="cls-1" d="M210.62,638.39l1.19,2.66c-.07,1.4-.93,1.35-1.93,1.09C209.45,640.73,209.27,639.41,210.62,638.39Z"/><path class="cls-1" d="M3.44,617c0,2.27,0,4.55-.07,6.83A8.75,8.75,0,0,1,3.44,617Z"/><path class="cls-1" d="M330.36,678.3l1,1.44c-.63,1.13-1.51.85-2.44.43C328.72,679,329.26,678.44,330.36,678.3Z"/><path class="cls-1" d="M122.46,567.06l-.66.08-.46-.47c-.16-1.4.71-1.54,1.57-1C123.4,566,123.46,566.87,122.46,567.06Z"/><path class="cls-1" d="M446.81,423.65l0-1.43C447.47,422.71,447.44,423.19,446.81,423.65Z"/><path class="cls-1" d="M176.68,375.55l-1.17-.25s0-.14,0-.18l1.1.49Z"/><path class="cls-1" d="M211.51,633.13l.37.86-.45.15a7.94,7.94,0,0,1-.31-.81A2.13,2.13,0,0,1,211.51,633.13Z"/><path class="cls-1" d="M453.48,665.59a.42.42,0,0,1,.7-.18C454.15,666.26,453.87,666.16,453.48,665.59Z"/><path class="cls-1" d="M141.85,311.28l-.18-.39c-.09-.62,0-.06.06.49Z"/><polygon class="cls-1" points="452.79 325.36 452.8 325.4 453.11 325.42 452.79 325.36"/><path class="cls-2" d="M169.85,646.84l1.49-1.65q.38.43.78.84a1.31,1.31,0,0,1-1.44,1.55Z"/><path class="cls-1" d="M403.05,477.79c-.13.2-.31.6-.38.58-.52-.14-.4-.39.33-.64Z"/><path class="cls-1" d="M355.66,610.83c-.63.46-1.1.39-1.35-.41C354.91,610.06,355.41,610,355.66,610.83Z"/><text class="cls-3" transform="translate(93.91 750.55)">مسجد صاحب الزمان شهر گرگاب</text></svg>