<svg id="Layer_1" data-name="Layer 1" xmlns="http://www.w3.org/2000/svg" viewBox="0 0 319.46 345.98"><defs><style>.cls-1{fill:#fff;}</style></defs><path class="cls-1" d="M212.44,0c2.82.64,5.66,1.21,8.46,1.92,32.24,8.16,53.08,36.52,50.91,69.55a64.29,64.29,0,0,1-18.38,41.44c-25.76,26.46-52,52.42-78.18,78.5a55.41,55.41,0,0,1-8.72,6.89,12.76,12.76,0,0,1-14.92,0,57.75,57.75,0,0,1-9-7.12c-25.83-25.75-51.79-51.38-77.28-77.48S39.69,47,64.86,20.37C75.26,9.38,88.2,3,103.17.71A20.4,20.4,0,0,0,105.68,0H119.2a10.3,10.3,0,0,0,1.88.61A65.33,65.33,0,0,1,157,17.06c.64.58,1.39,1,2.21,1.65,7.53-7,15.94-12.38,25.67-15.34,4.59-1.4,9.35-2.26,14-3.37Z"/><path class="cls-1" d="M183.48,315.21c.56-10.56.84-21.14,1.75-31.67,1.36-15.52,7.44-29.39,16.48-41.89,6.19-8.56,12.62-17,19.63-24.92a107,107,0,0,0,20.91-36.26,186.47,186.47,0,0,1,10.37-24.05,12.68,12.68,0,0,1,15.19-6.49c5,1.66,8.55,5.49,8.11,10.72a139.54,139.54,0,0,1-3.64,23.23,206.25,206.25,0,0,1-15.9,42.22c-.35.69-.95,1.49-.85,2.15.22,1.56.37,3.54,1.37,4.43a4.25,4.25,0,0,0,4.2,0,25.2,25.2,0,0,0,5.47-6.66c6.9-12.73,11.35-26.4,14.7-40.44,3.94-16.48,5.49-33,1.58-49.78a26.09,26.09,0,0,1,3.24-20.16c5.72-9.21,16.88-9.21,22.63,0,4.93,7.89,6.87,16.86,8.2,25.87,4.36,29.54,3.52,58.79-5.86,87.43-4.69,14.31-12.54,26.86-22.21,38.29a192.87,192.87,0,0,1-43.19,38c-4.23,2.72-6.77,6.22-7.53,11-1.22,7.65-2.15,15.36-3.28,23-.74,5-2.54,6.61-7.6,6.63-11.26,0-22.52.06-33.78,0-7.33,0-9.52-2.25-9.55-9.42s0-14.19,0-21.29Z"/><path class="cls-1" d="M135.55,315.5c0,7.54.07,15.09,0,22.63-.06,4.91-2.21,7.54-7.09,7.64-12.6.25-25.22.19-37.82.08-3.49,0-5.35-2-5.88-5.8-.8-5.68-1.45-11.38-2-17.09-.9-8.59-4.33-14.93-12.09-20-21-13.8-38.79-31.05-52.16-52.57C9.14,235.37,4.37,218.82,2,201.5c-3-22-2.86-44,1.7-65.83A96.75,96.75,0,0,1,9.4,118.08c2.7-6.39,8.44-9.88,14-9.17,6.63.85,10.09,5.38,12.16,11.24a28.4,28.4,0,0,1,1,16.29c-3.73,15.36-2.46,30.63.86,45.82,3.28,15,8,29.52,15.07,43.17a29.49,29.49,0,0,0,3.66,5.64c1.66,1.93,3.89,3.57,6.46,1.75,2.35-1.67,1.85-4,.66-6.36A208,208,0,0,1,47.42,184.6a142.36,142.36,0,0,1-3.91-21.17c-.77-7.18,2.28-11.53,8.09-13.48,5.27-1.77,11.41.34,14.89,5.83A84.86,84.86,0,0,1,73.16,169c3.82,9.24,6.93,18.78,11,27.9,4.74,10.64,13.31,18.61,20.55,27.49C113.05,234.57,121,245,126.8,257c6.28,12.94,8.22,26.8,8.59,41,.15,5.86,0,11.71,0,17.57Z"/></svg>