<svg id="Layer_1" data-name="Layer 1" xmlns="http://www.w3.org/2000/svg" viewBox="0 0 365.97 313.4"><defs><style>.cls-1{fill:#fff;}</style></defs><path class="cls-1" d="M88,59.3h29.47v5.28q0,99.72,0,199.44a29.47,29.47,0,0,0,1.17,9.2c2.64,7.79,8.31,12.21,16.55,13.09a56.79,56.79,0,0,0,6,.17h179c0,7.24.27,14.07-.11,20.86-.19,3.44-2.83,5.41-6.33,5.83a29,29,0,0,1-3.36.12c-83.32,0-166.64-.19-250,.1C31.86,313.51,8.76,295,2.32,270.56c-5.76-21.85-.87-41.48,15.31-57.41s35.49-20.28,57.27-14.62c1.32.34,2.63.79,4,1.06a7.36,7.36,0,0,0,9-6.19,28.14,28.14,0,0,0,.12-4.11q0-62.67,0-125.35Z"/><path class="cls-1" d="M130,246.62h18.37v-7.46H129.74V220.07h18.65v-7.51c-5,0-10-.18-15.06.07-3.16.15-4.1-.92-4-4,.24-5,.06-9.92.06-15.15h18.93v-7.53H129.66V166.89h18.82v-7.44H129.8v-19.2h18.64v-7.4H129.71V113.64h18.66v-7.56h-18.6V87h18.62V79.6H129.75c-.12-1.33-.29-2.4-.29-3.46q0-16.1,0-32.19c0-2.24-.26-5.1,2.55-5.48,1.68-.23,4.06.89,5.36,2.17q37.45,37.19,74.7,74.55c1.15,1.15,2.37,2,1.16,4.06-5.7,9.66-11.25,19.41-16.87,29.11-.18.31-.54.5-1,.91-8-8.05-16-16.12-24.1-24.05-1.18-1.16-3-1.66-4.53-2.46-.47,1.57-1.34,3.14-1.35,4.71q-.12,50.72-.05,101.43c0,7.08,2.63,9.76,9.68,9.77q50.89,0,101.8,0c1.47,0,2.93-.81,4.4-1.24-.69-1.45-1-3.24-2.1-4.32-12.36-12.5-24.83-24.89-37.52-37.57l18.47-32c1,.9,1.87,1.55,2.61,2.3q50,50,100,100a22.16,22.16,0,0,1,2.31,2.44c2,2.7.82,5.58-2.47,6.1a24.4,24.4,0,0,1-3.73.13H140.23c-8.59,0-10.79-2.21-10.78-10.88q0-7.86.08-15.71A5.2,5.2,0,0,1,130,246.62Z"/><path class="cls-1" d="M76,186.21c-23.63-5.06-44.73-.28-63.7,15.19-.11-1.67-.24-2.73-.24-3.8q0-75,0-150c.05-24,15.61-42.66,39-46.89A47.32,47.32,0,0,1,72.57,2.07c2.79.78,3.52,2.13,3.52,5q-.15,76.52-.07,153Z"/><path class="cls-1" d="M200.32,165.47c8.82-15.26,17.48-30.23,26.12-45.21,15.82-27.4,31.93-54.63,47.29-82.27,6.87-12.37,16.71-15.9,29.25-7.58,6.08,4,9.6,9,8.84,16.38a17.29,17.29,0,0,1-2.16,6.66q-37.35,64.93-74.86,129.78a18.65,18.65,0,0,1-1.12,1.5Z"/><path class="cls-1" d="M320.46,205.52l-53.69-53.67,51.6-89.39,1.16-.05a48,48,0,0,1,.89,6.48q.09,36.09,0,72.18v64.45Z"/><path class="cls-1" d="M220.59,106.43l-46.9-46.91h73.95Z"/><path class="cls-1" d="M177.47,148.05c4.07,4.17,7.44,7.48,10.59,11a3.25,3.25,0,0,1,.24,3.1c-6.29,7.64-6.43,16.59-6,25.79.29,6.47,0,13,.08,19.45.16,13,12.66,20.35,24,14.06,9.37-5.19,18.58-10.67,27.48-15.81l20.79,20.79H177.47Z"/><path class="cls-1" d="M194.34,175.87l33.52,19.36L207.51,207c-2.47,1.43-4.89,3-7.46,4.21-2.83,1.35-5.6-.11-5.65-3.17C194.24,197.53,194.34,187,194.34,175.87Z"/></svg>